<svg width="1516" height="717" viewBox="0 0 1516 717" fill="none" xmlns="http://www.w3.org/2000/svg">
<path d="M152.525 338.344C151.034 333.159 148.938 328.578 146.24 324.601C143.541 320.553 140.238 317.143 136.332 314.374C132.497 311.533 128.093 309.366 123.122 307.875C118.221 306.384 112.788 305.638 106.822 305.638C95.6713 305.638 85.8702 308.408 77.4185 313.947C69.0378 319.487 62.5037 327.548 57.8162 338.131C53.1287 348.642 50.785 361.497 50.785 376.696C50.785 391.895 53.0932 404.821 57.7097 415.474C62.3262 426.128 68.8603 434.26 77.312 439.871C85.7637 445.411 95.7424 448.18 107.248 448.18C117.688 448.18 126.602 446.334 133.988 442.641C141.445 438.876 147.127 433.585 151.034 426.767C155.011 419.949 156.999 411.888 156.999 402.584L166.374 403.969H110.124V369.239H201.424V396.724C201.424 415.901 197.376 432.378 189.279 446.156C181.183 459.864 170.032 470.446 155.828 477.903C141.623 485.29 125.359 488.983 107.035 488.983C86.5804 488.983 68.6117 484.473 53.1287 475.453C37.6458 466.362 25.5719 453.472 16.9071 436.781C8.31339 420.02 4.01651 400.134 4.01651 377.122C4.01651 359.437 6.57333 343.67 11.687 329.821C16.8716 315.901 24.1159 304.111 33.4199 294.452C42.7239 284.793 53.5549 277.442 65.9128 272.399C78.2708 267.357 91.6586 264.835 106.076 264.835C118.434 264.835 129.94 266.646 140.593 270.268C151.247 273.82 160.693 278.862 168.931 285.396C177.241 291.93 184.024 299.707 189.279 308.727C194.535 317.676 197.909 327.548 199.4 338.344H152.525Z" fill="#006CA9"/>
<path d="M1346.86 486V267.818H1392.98V447.967H1486.52V486H1346.86Z" fill="#006CA9"/>
<path d="M1095.18 486H1017.83V267.818H1095.82C1117.76 267.818 1136.65 272.186 1152.49 280.922C1168.33 289.587 1180.51 302.051 1189.03 318.315C1197.63 334.58 1201.92 354.04 1201.92 376.696C1201.92 399.423 1197.63 418.955 1189.03 435.29C1180.51 451.625 1168.26 464.161 1152.28 472.896C1136.37 481.632 1117.34 486 1095.18 486ZM1063.96 446.476H1093.26C1106.89 446.476 1118.36 444.061 1127.67 439.232C1137.04 434.331 1144.08 426.767 1148.76 416.54C1153.52 406.241 1155.9 392.96 1155.9 376.696C1155.9 360.574 1153.52 347.399 1148.76 337.172C1144.08 326.945 1137.08 319.416 1127.78 314.587C1118.47 309.757 1107 307.342 1093.36 307.342H1063.96V446.476Z" fill="#006CA9"/>
<path d="M664.155 486L601.726 267.818H652.117L688.232 419.416H690.043L729.887 267.818H773.033L812.77 419.736H814.688L850.803 267.818H901.194L838.765 486H793.807L752.259 343.351H750.555L709.113 486H664.155Z" fill="#006CA9"/>
<path d="M322.844 486V267.818H408.923C425.472 267.818 439.57 270.979 451.218 277.3C462.865 283.55 471.743 292.25 477.851 303.401C484.03 314.48 487.12 327.264 487.12 341.753C487.12 356.241 483.995 369.026 477.745 380.105C471.495 391.185 462.439 399.814 450.578 405.993C438.789 412.172 424.513 415.261 407.752 415.261H352.887V378.294H400.294C409.172 378.294 416.487 376.767 422.24 373.713C428.064 370.588 432.396 366.291 435.237 360.822C438.149 355.283 439.605 348.926 439.605 341.753C439.605 334.509 438.149 328.187 435.237 322.79C432.396 317.321 428.064 313.095 422.24 310.112C416.416 307.058 409.03 305.531 400.081 305.531H368.973V486H322.844Z" fill="#006CA9"/>
<line x1="102.998" y1="166" x2="1379.01" y2="165.5" stroke="#737370" stroke-width="10"/>
<path d="M99.4645 236.536C101.417 238.488 104.583 238.488 106.536 236.536L138.355 204.716C140.308 202.763 140.308 199.597 138.355 197.645C136.403 195.692 133.237 195.692 131.284 197.645L103 225.929L74.7157 197.645C72.7631 195.692 69.5973 195.692 67.6447 197.645C65.692 199.597 65.692 202.763 67.6447 204.716L99.4645 236.536ZM98 161V233H108V161H98Z" fill="#737370"/>
<line x1="757" y1="171" x2="757" y2="234" stroke="#737370" stroke-width="10"/>
<line x1="1374" y1="170" x2="1374" y2="233" stroke="#737370" stroke-width="10"/>
<line x1="1083" y1="171" x2="1083" y2="234" stroke="#737370" stroke-width="10"/>
<line x1="347" y1="587" x2="1078" y2="587" stroke="#737370" stroke-width="10"/>
<path d="M350.536 516.464C348.583 514.512 345.417 514.512 343.464 516.464L311.645 548.284C309.692 550.237 309.692 553.403 311.645 555.355C313.597 557.308 316.763 557.308 318.716 555.355L347 527.071L375.284 555.355C377.237 557.308 380.403 557.308 382.355 555.355C384.308 553.403 384.308 550.237 382.355 548.284L350.536 516.464ZM352 592V520H342V592H352Z" fill="#737370"/>
<line x1="757" y1="529" x2="757" y2="592" stroke="#737370" stroke-width="10"/>
<line x1="1083" y1="529" x2="1083" y2="592" stroke="#737370" stroke-width="10"/>
<path d="M739.287 143.116V42.5483H764.713V143.116H739.287ZM701.716 105.545V80.1193H802.284V105.545H701.716Z" fill="#FA8F00"/>
<path d="M1071.29 704.116V603.548H1096.71V704.116H1071.29ZM1033.72 666.545V641.119H1134.28V666.545H1033.72Z" fill="#FA8F00"/>
<path d="M679.807 643.182L680.695 629.439L669.189 637.145L664.431 628.764L676.824 622.727L664.431 616.69L669.189 608.31L680.695 616.016L679.807 602.273H689.36L688.436 616.016L699.942 608.31L704.7 616.69L692.343 622.727L704.7 628.764L699.942 637.145L688.436 629.439L689.36 643.182H679.807ZM745.556 675.994C740.253 675.994 735.53 675.083 731.387 673.26C727.268 671.413 724.013 668.88 721.622 665.661C719.254 662.417 718.035 658.677 717.964 654.439H733.447C733.542 656.214 734.122 657.777 735.187 659.126C736.276 660.452 737.72 661.482 739.519 662.216C741.319 662.95 743.343 663.317 745.592 663.317C747.936 663.317 750.007 662.902 751.806 662.074C753.606 661.245 755.014 660.097 756.032 658.629C757.05 657.161 757.559 655.469 757.559 653.551C757.559 651.61 757.015 649.893 755.926 648.402C754.86 646.887 753.321 645.703 751.309 644.851C749.32 643.999 746.953 643.572 744.207 643.572H737.424V632.28H744.207C746.527 632.28 748.575 631.877 750.35 631.072C752.15 630.268 753.546 629.155 754.541 627.734C755.535 626.29 756.032 624.609 756.032 622.692C756.032 620.869 755.594 619.271 754.718 617.898C753.866 616.501 752.659 615.412 751.096 614.631C749.557 613.849 747.758 613.459 745.698 613.459C743.615 613.459 741.709 613.838 739.981 614.595C738.253 615.329 736.868 616.383 735.826 617.756C734.785 619.129 734.228 620.739 734.157 622.585H719.42C719.491 618.395 720.686 614.702 723.007 611.506C725.327 608.31 728.452 605.812 732.382 604.013C736.335 602.19 740.798 601.278 745.769 601.278C750.788 601.278 755.18 602.19 758.944 604.013C762.708 605.836 765.632 608.298 767.715 611.399C769.822 614.477 770.864 617.933 770.84 621.768C770.864 625.84 769.597 629.238 767.041 631.96C764.508 634.683 761.205 636.411 757.133 637.145V637.713C762.483 638.4 766.555 640.258 769.349 643.288C772.166 646.295 773.563 650.059 773.539 654.581C773.563 658.724 772.367 662.405 769.953 665.625C767.561 668.845 764.259 671.378 760.045 673.224C755.831 675.071 751.001 675.994 745.556 675.994ZM806.325 663.92V613.636H819.038V663.92H806.325ZM787.54 645.135V632.422H837.824V645.135H787.54Z" fill="#FA8F00"/>
<path d="M55.9233 81.8239V56.6108H154.006V81.8239H55.9233ZM55.9233 128.983V103.77H154.006V128.983H55.9233Z" fill="#FA8F00"/>
<path d="M297.923 642.824V617.611H396.006V642.824H297.923ZM297.923 689.983V664.77H396.006V689.983H297.923Z" fill="#FA8F00"/>
<path d="M1071.29 143.116V42.5483H1096.71V143.116H1071.29ZM1033.72 105.545V80.1193H1134.28V105.545H1033.72Z" fill="#FA8F00"/>
<path d="M1356.29 143.116V42.5483H1381.71V143.116H1356.29ZM1318.72 105.545V80.1193H1419.28V105.545H1318.72Z" fill="#FA8F00"/>
</svg>
